<svg xmlns="http://www.w3.org/2000/svg" xmlns:xlink="http://www.w3.org/1999/xlink" width="71.571" height="68" viewBox="0 0 71.571 68">
  <defs>
    <linearGradient id="linear-gradient" x1="1.277" y1="1.202" x2="0.46" y2="0.105" gradientUnits="objectBoundingBox">
      <stop offset="0.003" stop-color="#ff37df"/>
      <stop offset="1" stop-color="#6e00ff"/>
    </linearGradient>
    <filter id="time_1_" x="0" y="0" width="71.571" height="68" filterUnits="userSpaceOnUse">
      <feOffset dy="3" input="SourceAlpha"/>
      <feGaussianBlur stdDeviation="3" result="blur"/>
      <feFlood flood-opacity="0.161"/>
      <feComposite operator="in" in2="blur"/>
      <feComposite in="SourceGraphic"/>
    </filter>
  </defs>
  <g transform="matrix(1, 0, 0, 1, 0, 0)" filter="url(#time_1_)">
    <path id="time_1_2" data-name="time(1)" d="M13.607,7.6V5.786a1.786,1.786,0,1,1,3.571,0V7.571H40.393V5.786a1.786,1.786,0,0,1,3.571,0V7.6A12.5,12.5,0,0,1,55.571,20.071V41.5A12.5,12.5,0,0,1,43.071,54H14.5A12.5,12.5,0,0,1,2,41.5V20.071A12.5,12.5,0,0,1,13.607,7.6Zm3.571,16.04a1.786,1.786,0,1,1-1.786-1.786A1.786,1.786,0,0,1,17.179,23.643Zm0,8.036a1.786,1.786,0,1,1-1.786-1.786A1.786,1.786,0,0,1,17.179,31.679Zm0,8.036a1.786,1.786,0,1,1-1.786-1.786A1.786,1.786,0,0,1,17.179,39.714ZM30.571,23.643a1.786,1.786,0,1,1-1.786-1.786A1.786,1.786,0,0,1,30.571,23.643Zm7.666-1.263a1.786,1.786,0,0,1,2.525,0L42.179,23.8l1.416-1.416a1.786,1.786,0,0,1,2.525,2.525L44.7,26.321l1.416,1.416a1.786,1.786,0,0,1-2.525,2.525l-1.416-1.416-1.416,1.416a1.786,1.786,0,1,1-2.525-2.525l1.416-1.416-1.416-1.416A1.786,1.786,0,0,1,38.237,22.38Zm-7.666,9.3a1.786,1.786,0,1,1-1.786-1.786A1.786,1.786,0,0,1,30.571,31.679Zm0,8.036a1.786,1.786,0,1,1-1.786-1.786A1.786,1.786,0,0,1,30.571,39.714Zm13.393,0a1.786,1.786,0,1,1-1.786-1.786A1.786,1.786,0,0,1,43.964,39.714Z" transform="translate(7 2)" fill-rule="evenodd" fill="url(#linear-gradient)"/>
  </g>
</svg>
