<svg xmlns="http://www.w3.org/2000/svg" xmlns:xlink="http://www.w3.org/1999/xlink" width="63" height="68" viewBox="0 0 63 68">
  <defs>
    <linearGradient id="linear-gradient" x1="1.277" y1="1.202" x2="0.281" y2="0.258" gradientUnits="objectBoundingBox">
      <stop offset="0.003" stop-color="#ff37df"/>
      <stop offset="1" stop-color="#6e00ff"/>
    </linearGradient>
    <filter id="key" x="0" y="0" width="63" height="68" filterUnits="userSpaceOnUse">
      <feOffset dy="3" input="SourceAlpha"/>
      <feGaussianBlur stdDeviation="3" result="blur"/>
      <feFlood flood-opacity="0.161"/>
      <feComposite operator="in" in2="blur"/>
      <feComposite in="SourceGraphic"/>
    </filter>
  </defs>
  <g transform="matrix(1, 0, 0, 1, 0, 0)" filter="url(#key)">
    <path id="key-2" data-name="key" d="M39.167,13.667v1.758a12.691,12.691,0,0,1,7.158,3.261,11.084,11.084,0,0,1,0,16.488L28.632,51.556a1.667,1.667,0,0,1-2.265,0L8.675,35.173a11.084,11.084,0,0,1,0-16.488,12.691,12.691,0,0,1,7.158-3.261V13.667a11.667,11.667,0,1,1,23.333,0ZM28.9,18.685a12.674,12.674,0,0,1,6.938-3.233V13.667a8.333,8.333,0,1,0-16.667,0v1.786A12.674,12.674,0,0,1,26.1,18.685l1.4,1.292ZM25.833,33.667a1.667,1.667,0,1,0,3.333,0V32a1.667,1.667,0,1,0-3.333,0Z" transform="translate(4 4)" fill-rule="evenodd" fill="url(#linear-gradient)"/>
  </g>
</svg>
