<svg fill="none" height="64" viewBox="0 0 64 64" width="64" xmlns="http://www.w3.org/2000/svg" xmlns:xlink="http://www.w3.org/1999/xlink"><linearGradient id="paint0_linear_2813_2006" gradientUnits="userSpaceOnUse" x1="78.644" x2="36.212" y1="67.103" y2="7.535"><stop offset=".00265844" stop-color="#ff37df"/><stop offset="1" stop-color="#6e00ff"/></linearGradient><g fill="url(#paint0_linear_2813_2006)"><path d="m48 7c.9337 0 1.7432.64607 1.9502 1.55654l1.1066 4.86636c.5118 2.2509 2.2694 4.0085 4.5203 4.5203l4.8664 1.1066c.9104.207 1.5565 1.0165 1.5565 1.9502s-.6461 1.7432-1.5565 1.9502l-4.8664 1.1066c-2.2509.5118-4.0085 2.2694-4.5203 4.5203l-1.1066 4.8664c-.207.9104-1.0165 1.5565-1.9502 1.5565s-1.7432-.6461-1.9502-1.5565l-1.1066-4.8664c-.5118-2.2509-2.2694-4.0085-4.5203-4.5203l-4.8664-1.1066c-.9104-.207-1.5565-1.0165-1.5565-1.9502s.6461-1.7432 1.5565-1.9502l4.8664-1.1066c2.2509-.5118 4.0085-2.2694 4.5203-4.5203l1.1066-4.86636c.207-.91047 1.0165-1.55654 1.9502-1.55654z"/><path clip-rule="evenodd" d="m56.2422 26.9821 4.7965-1.0907c.6206 1.5827.9613 3.3059.9613 5.1086v14.3699c0 6.4231-5.207 11.6301-11.6301 11.6301-3.3537 0-6.5442-1.4477-8.7526-3.9716l-5.1018-5.8307c-2.3905-2.732-6.6405-2.732-9.031 0l-5.1018 5.8307c-2.2084 2.5239-5.3989 3.9716-8.7526 3.9716-6.42311 0-11.6301-5.207-11.6301-11.6301v-14.3699c0-7.732 6.26801-14 14-14h16.9994c-1.228.9219-1.9994 2.3868-1.9994 4 0 2.3343 1.6152 4.358 3.8914 4.8755l4.8664 1.1066c1.1254.2559 2.0042 1.1347 2.2601 2.2601l1.1066 4.8664c.5175 2.2762 2.5412 3.8914 4.8755 3.8914s4.358-1.6152 4.8755-3.8914l1.1066-4.8664c.2559-1.1254 1.1347-2.0042 2.2601-2.2601zm-44.2422 6.0179c0-1.1046.8954-2 2-2h2v-2c0-1.1046.8954-2 2-2s2 .8954 2 2v2h2c1.1046 0 2 .8954 2 2s-.8954 2-2 2h-2v2c0 1.1046-.8954 2-2 2s-2-.8954-2-2v-2h-2c-1.1046 0-2-.8954-2-2z" fill-rule="evenodd"/></g></svg>